<mxfile host="65bd71144e">
    <diagram id="YnsuH4LNzArkPRJicwyz" name="Page-1">
        <mxGraphModel dx="1625" dy="655" grid="0" gridSize="10" guides="1" tooltips="1" connect="1" arrows="1" fold="1" page="1" pageScale="1" pageWidth="1100" pageHeight="850" background="#FFFFFF" math="0" shadow="0">
            <root>
                <mxCell id="0"/>
                <mxCell id="1" parent="0"/>
                <mxCell id="2" value="&lt;font style=&quot;font-size: 12px;&quot;&gt;On-premises (Azure)&lt;br style=&quot;&quot;&gt;10.100.0.0/24&lt;br&gt;&lt;/font&gt;" style="whiteSpace=wrap;html=1;labelBackgroundColor=none;fontFamily=Verdana;fontSize=15;labelPosition=center;verticalLabelPosition=bottom;align=center;verticalAlign=top;dashed=1;strokeColor=#808080;" parent="1" vertex="1">
                    <mxGeometry x="101" y="194" width="236" height="159.5" as="geometry"/>
                </mxCell>
                <mxCell id="3" value="GatewaySubnet&lt;br&gt;10.100.0.32/27" style="whiteSpace=wrap;html=1;labelBackgroundColor=none;fontFamily=Verdana;fillColor=#f5f5f5;fontColor=#333333;strokeColor=none;fontSize=10;labelPosition=center;verticalLabelPosition=bottom;align=center;verticalAlign=top;" parent="1" vertex="1">
                    <mxGeometry x="112.39999999999998" y="204" width="103.69" height="112.19" as="geometry"/>
                </mxCell>
                <mxCell id="5" value="az-hub-vnet&lt;br style=&quot;font-size: 11px;&quot;&gt;10.0.0.0/24" style="whiteSpace=wrap;html=1;fillColor=none;strokeColor=#007FFF;dashed=1;labelPosition=center;verticalLabelPosition=top;align=center;verticalAlign=bottom;fontSize=11;fontFamily=Verdana;" parent="1" vertex="1">
                    <mxGeometry x="529" y="87" width="134" height="247" as="geometry"/>
                </mxCell>
                <mxCell id="6" value="" style="aspect=fixed;html=1;points=[];align=center;image;fontSize=12;image=img/lib/azure2/networking/Virtual_Networks.svg;dashed=1;fontFamily=Verdana;" parent="1" vertex="1">
                    <mxGeometry x="647.9985556915544" y="88.08" width="21.64138017356475" height="12.920226969292392" as="geometry"/>
                </mxCell>
                <mxCell id="7" value="GatewaySubnet" style="whiteSpace=wrap;html=1;labelBackgroundColor=none;fontFamily=Verdana;fillColor=#f5f5f5;fontColor=#333333;strokeColor=none;fontSize=10;labelPosition=left;verticalLabelPosition=bottom;align=right;verticalAlign=top;spacingLeft=0;spacingBottom=0;spacingRight=-63;spacing=-18;" parent="1" vertex="1">
                    <mxGeometry x="533.71" y="208" width="125.29" height="120" as="geometry"/>
                </mxCell>
                <mxCell id="9" value="Subnet1" style="whiteSpace=wrap;html=1;labelBackgroundColor=none;fontFamily=Verdana;fillColor=#f5f5f5;fontColor=#333333;strokeColor=none;fontSize=10;labelPosition=center;verticalLabelPosition=top;align=center;verticalAlign=bottom;" parent="1" vertex="1">
                    <mxGeometry x="533.71" y="101" width="125.56" height="100" as="geometry"/>
                </mxCell>
                <mxCell id="12" style="edgeStyle=none;html=1;entryX=1;entryY=0.25;entryDx=0;entryDy=0;fontFamily=Verdana;fontSize=10;endArrow=none;endFill=0;opacity=50;exitX=0;exitY=0.5;exitDx=0;exitDy=0;fontColor=#007FFF;strokeColor=#007FFF;" parent="1" source="13" target="5" edge="1">
                    <mxGeometry relative="1" as="geometry">
                        <mxPoint x="289" y="152" as="sourcePoint"/>
                    </mxGeometry>
                </mxCell>
                <mxCell id="13" value="az-spk1-vnet&lt;br style=&quot;font-size: 11px;&quot;&gt;10.0.1.0/24" style="whiteSpace=wrap;html=1;fillColor=none;strokeColor=#6c8ebf;dashed=1;labelBackgroundColor=none;fontFamily=Verdana;fontSize=11;labelPosition=center;verticalLabelPosition=top;align=center;verticalAlign=bottom;" parent="1" vertex="1">
                    <mxGeometry x="740.04" y="56" width="234.96" height="118" as="geometry"/>
                </mxCell>
                <mxCell id="14" value="" style="aspect=fixed;html=1;points=[];align=center;image;fontSize=12;image=img/lib/azure2/networking/Virtual_Networks.svg;dashed=1;labelBackgroundColor=none;fontFamily=Verdana;fillColor=default;" parent="1" vertex="1">
                    <mxGeometry x="950" y="61" width="20.1" height="12" as="geometry"/>
                </mxCell>
                <mxCell id="15" value="Subnet1" style="whiteSpace=wrap;html=1;labelBackgroundColor=none;fontFamily=Verdana;fillColor=#f5f5f5;fontColor=#333333;strokeColor=none;fontSize=10;labelPosition=center;verticalLabelPosition=top;align=center;verticalAlign=bottom;" parent="1" vertex="1">
                    <mxGeometry x="749.04" y="73" width="214.96" height="94.79" as="geometry"/>
                </mxCell>
                <mxCell id="16" value="az-spk1-lxvm&lt;br&gt;10.0.1.4" style="aspect=fixed;html=1;points=[];align=center;image;fontSize=12;image=img/lib/azure2/compute/Virtual_Machine.svg;labelBackgroundColor=none;fontFamily=Verdana;fillColor=default;" parent="1" vertex="1">
                    <mxGeometry x="791.0413" y="83.99988651535381" width="34.086598798397866" height="31.616555407209614" as="geometry"/>
                </mxCell>
                <mxCell id="17" style="edgeStyle=none;html=1;exitX=0;exitY=0.5;exitDx=0;exitDy=0;fontFamily=Verdana;fontSize=10;endArrow=none;endFill=0;opacity=50;fontColor=#007FFF;strokeColor=#007FFF;entryX=1;entryY=0.5;entryDx=0;entryDy=0;" parent="1" source="18" target="5" edge="1">
                    <mxGeometry relative="1" as="geometry">
                        <mxPoint x="666" y="175" as="targetPoint"/>
                    </mxGeometry>
                </mxCell>
                <mxCell id="18" value="az-spk2-vnet&lt;br style=&quot;font-size: 11px;&quot;&gt;10.0.2.0/24" style="whiteSpace=wrap;html=1;fillColor=none;strokeColor=#6c8ebf;dashed=1;labelBackgroundColor=none;fontFamily=Verdana;fontSize=11;labelPosition=center;verticalLabelPosition=top;align=center;verticalAlign=bottom;" parent="1" vertex="1">
                    <mxGeometry x="778" y="232.21" width="140" height="116" as="geometry"/>
                </mxCell>
                <mxCell id="19" value="" style="aspect=fixed;html=1;points=[];align=center;image;fontSize=12;image=img/lib/azure2/networking/Virtual_Networks.svg;dashed=1;labelBackgroundColor=none;fontFamily=Verdana;fillColor=default;" parent="1" vertex="1">
                    <mxGeometry x="890" y="235.4" width="20.1" height="12" as="geometry"/>
                </mxCell>
                <mxCell id="20" value="Subnet1" style="whiteSpace=wrap;html=1;labelBackgroundColor=none;fontFamily=Verdana;fillColor=#f5f5f5;fontColor=#333333;strokeColor=none;fontSize=10;labelPosition=center;verticalLabelPosition=top;align=center;verticalAlign=bottom;" parent="1" vertex="1">
                    <mxGeometry x="787" y="249.21" width="120" height="94.79" as="geometry"/>
                </mxCell>
                <mxCell id="23" value="Subnet1&lt;br&gt;10.100.0.96/27" style="whiteSpace=wrap;html=1;labelBackgroundColor=none;fontFamily=Verdana;fillColor=#f5f5f5;fontColor=#333333;strokeColor=none;fontSize=10;labelPosition=center;verticalLabelPosition=bottom;align=center;verticalAlign=top;" parent="1" vertex="1">
                    <mxGeometry x="223" y="204" width="103.65" height="112.19" as="geometry"/>
                </mxCell>
                <mxCell id="26" value="&lt;span style=&quot;font-weight: normal;&quot;&gt;onprem-lxvm&lt;br&gt;192.168.100.4&lt;/span&gt;" style="aspect=fixed;html=1;points=[];align=center;image;fontSize=12;image=img/lib/azure2/compute/Virtual_Machine.svg;labelBackgroundColor=none;fontFamily=Verdana;fillColor=default;fontStyle=1" parent="1" vertex="1">
                    <mxGeometry x="147.20129999999995" y="227.28988651535383" width="34.086598798397866" height="31.616555407209614" as="geometry"/>
                </mxCell>
                <mxCell id="31" value="" style="edgeStyle=none;html=1;strokeColor=#FF3333;fontFamily=Verdana;fontSize=10;fontColor=default;endArrow=none;endFill=0;opacity=50;strokeWidth=1;dashed=1;" parent="1" source="21" target="36" edge="1">
                    <mxGeometry relative="1" as="geometry">
                        <mxPoint x="372" y="244.08511446817272" as="targetPoint"/>
                    </mxGeometry>
                </mxCell>
                <mxCell id="44" value="IS2S IPSec VPN + BGP" style="edgeLabel;html=1;align=center;verticalAlign=middle;resizable=0;points=[];fontSize=10;fontColor=#FF3333;fontFamily=Verdana;" vertex="1" connectable="0" parent="31">
                    <mxGeometry x="-0.3454" y="-4" relative="1" as="geometry">
                        <mxPoint x="44" y="4" as="offset"/>
                    </mxGeometry>
                </mxCell>
                <mxCell id="34" value="az-spk2-lxvm&lt;br&gt;10.0.2.4" style="aspect=fixed;html=1;points=[];align=center;image;fontSize=12;image=img/lib/azure2/compute/Virtual_Machine.svg;labelBackgroundColor=none;fontFamily=Verdana;fillColor=default;" parent="1" vertex="1">
                    <mxGeometry x="838.0012999999999" y="262.2098865153538" width="34.086598798397866" height="31.616555407209614" as="geometry"/>
                </mxCell>
                <mxCell id="35" value="az-hub-lxvm&lt;br&gt;NVA&lt;br&gt;10.0.0.4" style="aspect=fixed;html=1;points=[];align=center;image;fontSize=12;image=img/lib/azure2/compute/Virtual_Machine.svg;labelBackgroundColor=none;fontFamily=Verdana;fillColor=default;" parent="1" vertex="1">
                    <mxGeometry x="580.4612999999999" y="114.99988651535382" width="34.086598798397866" height="31.616555407209614" as="geometry"/>
                </mxCell>
                <mxCell id="36" value="az-hub-vpngw&lt;br&gt;" style="aspect=fixed;html=1;points=[];align=center;image;fontSize=12;image=img/lib/azure2/networking/Virtual_Network_Gateways.svg;glass=0;dashed=1;dashPattern=8 8;strokeColor=#E6E6E6;fontColor=#000000;fillColor=#CCCCCC;rounded=0;sketch=1;hachureGap=4;jiggle=2;curveFitting=1;fontFamily=Verdana;labelBackgroundColor=#f5f5f5;fontStyle=0" parent="1" vertex="1">
                    <mxGeometry x="586.5998245614036" y="232.2133884116066" width="27.943925233644855" height="37.081588785046726" as="geometry"/>
                </mxCell>
                <mxCell id="21" value="onprem-vpngw" style="aspect=fixed;html=1;points=[];align=center;image;fontSize=12;image=img/lib/azure2/networking/Virtual_Network_Gateways.svg;glass=0;dashed=1;dashPattern=8 8;strokeColor=#E6E6E6;fontColor=#000000;fillColor=#CCCCCC;rounded=0;sketch=1;hachureGap=4;jiggle=2;curveFitting=1;fontFamily=Verdana;labelBackgroundColor=none;" parent="1" vertex="1">
                    <mxGeometry x="263" y="234.83" width="28" height="37.16" as="geometry"/>
                </mxCell>
                <mxCell id="47" value="az-spk1-lxvm&lt;br&gt;10.0.1.4" style="aspect=fixed;html=1;points=[];align=center;image;fontSize=12;image=img/lib/azure2/compute/Virtual_Machine.svg;labelBackgroundColor=none;fontFamily=Verdana;fillColor=default;" vertex="1" parent="1">
                    <mxGeometry x="893.0013" y="83.3798865153538" width="34.086598798397866" height="31.616555407209614" as="geometry"/>
                </mxCell>
            </root>
        </mxGraphModel>
    </diagram>
</mxfile>